<svg width="100%" viewBox="0 0 680 420" role="img" xmlns="http://www.w3.org/2000/svg">
<title>Soyga Universe</title>
<rect width="680" height="420" fill="#06071A"/>
<circle cx="340" cy="240" r="80" fill="none" stroke="#26215C" stroke-width="0.5" opacity="0.4"/>
<circle cx="340" cy="240" r="55" fill="none" stroke="#3C3489" stroke-width="0.4" opacity="0.35"/>
<circle cx="340" cy="240" r="30" fill="none" stroke="#534AB7" stroke-width="0.4" opacity="0.4"/>
<circle cx="340" cy="240" r="10" fill="#26215C" opacity="0.5"/>
<circle cx="340" cy="160" r="3" fill="#C8A84B" opacity="0.6"/>
<circle cx="420" cy="190" r="3" fill="#C8A84B" opacity="0.6"/>
<circle cx="420" cy="290" r="3" fill="#C8A84B" opacity="0.6"/>
<circle cx="340" cy="320" r="3" fill="#C8A84B" opacity="0.6"/>
<circle cx="260" cy="290" r="3" fill="#C8A84B" opacity="0.6"/>
<circle cx="260" cy="190" r="3" fill="#C8A84B" opacity="0.6"/>
<g stroke="#C8A84B" stroke-width="0.4" opacity="0.3">
<line x1="340" y1="160" x2="420" y2="190"/><line x1="420" y1="190" x2="420" y2="290"/>
<line x1="420" y1="290" x2="340" y2="320"/><line x1="340" y1="320" x2="260" y2="290"/>
<line x1="260" y1="290" x2="260" y2="190"/><line x1="260" y1="190" x2="340" y2="160"/>
</g>
<text x="340" y="60" text-anchor="middle" font-family="Georgia, serif" font-size="9" fill="#7F77DD" letter-spacing="3" opacity="0.6">SYMBOLIC COSMOLOGY - RECURSIVE REALITY</text>
<text x="340" y="108" text-anchor="middle" font-family="Georgia, serif" font-size="40" font-weight="bold" fill="#534AB7" letter-spacing="2" opacity="0.9">SOYGA</text>
<text x="340" y="140" text-anchor="middle" font-family="Georgia, serif" font-size="24" fill="#7F77DD" letter-spacing="3" opacity="0.8">UNIVERSE</text>
<line x1="240" y1="148" x2="440" y2="148" stroke="#534AB7" stroke-width="0.5" opacity="0.4"/>
<text x="340" y="400" text-anchor="middle" font-family="Georgia, serif" font-size="9" fill="#AFA9EC" opacity="0.5">TYPE D/E - Draft Stage - Richard Steven Vallance 2026</text>
<rect x="8" y="8" width="664" height="404" rx="2" fill="none" stroke="#26215C" stroke-width="0.6" opacity="0.4"/>
</svg>